<svg id="Calque_2" data-name="Calque 2" xmlns="http://www.w3.org/2000/svg" xmlns:xlink="http://www.w3.org/1999/xlink" width="167.72" height="127.44" viewBox="0 0 167.72 127.44">
  <defs>
    <clipPath id="clip-path">
      <rect id="Rectangle_7" data-name="Rectangle 7" width="78.544" height="28.993" fill="none"/>
    </clipPath>
    <clipPath id="clip-path-2">
      <rect id="Rectangle_8" data-name="Rectangle 8" width="85.808" height="16.019" fill="none"/>
    </clipPath>
  </defs>
  <g id="Calque_1" data-name="Calque 1">
    <g id="surface1" transform="translate(41.475)">
      <path id="Path_12" data-name="Path 12" d="M151.492,0V28.038h-3.428V3.47H76.617V29.335H73.231a.6.6,0,0,1-.048-.372V.348a3.4,3.4,0,0,1,0-.348" transform="translate(-70.715)" fill="#1c4791"/>
      <g id="Group_15" data-name="Group 15" transform="translate(2.414 49.262)" clip-path="url(#clip-path)">
        <path id="Path_13" data-name="Path 13" d="M73.227,111.111a3.394,3.394,0,0,1,0-.348V83.535h3.4v24.1h71.447V82.22H151.5c.072.09.036.21.036.324v28.411a1.306,1.306,0,0,1,0,.156" transform="translate(-73.149 -82.118)" fill="#1c4791"/>
      </g>
      <path id="Path_14" data-name="Path 14" d="M146.113,11.541c.138-.144.324-.072.48-.078a13.587,13.587,0,0,1,6.784,1.129,13.737,13.737,0,0,1,4.131,2.948,14.247,14.247,0,0,1,3.116,5.067,15.01,15.01,0,0,1,.853,5.878,14.524,14.524,0,0,1-4.047,9.294,13.376,13.376,0,0,1-3.5,2.6.312.312,0,0,1-.24.054,13.077,13.077,0,0,1-11.269-4.281,14.319,14.319,0,0,1-3.6-12.578,13.809,13.809,0,0,1,4.425-8.009,15.009,15.009,0,0,1,2.87-2.035" transform="translate(-96.839 -4.558)" fill="#d1e6d3"/>
      <path id="Path_15" data-name="Path 15" d="M69.556,62.656a10.279,10.279,0,0,1,1.165-1.069,24.58,24.58,0,0,1,6.352-3.927A21.266,21.266,0,0,1,84,55.979a73.691,73.691,0,0,1,9.564-.12,47.634,47.634,0,0,1,8.015,1.2c1.957.462,3.915.949,5.872,1.4a54.162,54.162,0,0,0,12.975,1.123,107.023,107.023,0,0,0,13.287-1.069,29.622,29.622,0,0,0,3.116-.72,95.238,95.238,0,0,0,11.732-3.9q2.918-1.2,5.776-2.528l.444-.228c.048.186-.114.21-.192.282-.378.354-.769.7-1.159,1.045a45.9,45.9,0,0,1-7.805,5.518,42.953,42.953,0,0,1-9.5,3.975,42.028,42.028,0,0,1-6.857,1.3,56.437,56.437,0,0,1-8.838.27q-3.885-.186-7.739-.75c-2.672-.384-5.332-.883-7.985-1.4-3.32-.66-6.64-1.351-9.979-1.9a48.757,48.757,0,0,0-7.7-.781,38.173,38.173,0,0,0-8.255.865,39.71,39.71,0,0,0-8.285,2.714,2.882,2.882,0,0,1-.931.384" transform="translate(-69.268 -20.436)" fill="#239445"/>
      <g id="Group_16" data-name="Group 16" transform="translate(0 30.488)" clip-path="url(#clip-path-2)">
        <path id="Path_16" data-name="Path 16" d="M69.392,62.585a2.882,2.882,0,0,0,.931-.384,39.711,39.711,0,0,1,8.285-2.714,38.173,38.173,0,0,1,8.255-.865,48.759,48.759,0,0,1,7.7.769c3.338.546,6.658,1.237,9.979,1.9,2.654.522,5.314,1.021,7.985,1.4q3.855.558,7.739.751a56.437,56.437,0,0,0,8.832-.258,42.027,42.027,0,0,0,6.868-1.315,42.954,42.954,0,0,0,9.5-3.975,45.9,45.9,0,0,0,7.805-5.518c.39-.348.78-.69,1.159-1.045.078-.072.24-.1.192-.282a.24.24,0,0,1,.288-.066,7.321,7.321,0,0,1-.714,1.153,28.608,28.608,0,0,1-3.062,3.807,36.433,36.433,0,0,1-4.527,4.047,34.006,34.006,0,0,1-5.1,3.152,32.685,32.685,0,0,1-8.153,2.828c-1.423.288-2.858.48-4.3.642a56.276,56.276,0,0,1-13.047-.306c-2.5-.33-4.989-.781-7.463-1.279-1.939-.4-3.873-.853-5.806-1.273-2.263-.486-4.521-1-6.79-1.435q-2.684-.522-5.4-.811c-1.531-.168-3.062-.258-4.6-.33-.811-.036-1.621-.054-2.4-.042-1.8,0-3.6.12-5.4.288a53.022,53.022,0,0,0-8,1.315c-.324.078-.648.138-1,.258a.45.45,0,0,1,.288-.384" transform="translate(-69.104 -50.853)" fill="#d1e6d3"/>
      </g>
      <path id="Path_17" data-name="Path 17" d="M143.328,11.63a15.011,15.011,0,0,0-2.87,2.023,13.809,13.809,0,0,0-4.425,8.009,14.319,14.319,0,0,0,3.554,12.608,13.076,13.076,0,0,0,11.281,4.257,7.349,7.349,0,0,1-2.227.883,12.746,12.746,0,0,1-4.689.426,13.137,13.137,0,0,1-6.778-2.666,13.653,13.653,0,0,1-3.813-4.443,14.47,14.47,0,0,1-1.495-9.852,13.923,13.923,0,0,1,5.824-9.042,12.338,12.338,0,0,1,5.644-2.2" transform="translate(-94.053 -4.647)" fill="#239445"/>
    </g>
    <path id="Path_18" data-name="Path 18" d="M5.487,180.209H3.65v3.374H2.623v-3.374H.78v-1.015H2.623V175.82H3.65v3.374H5.487Z" transform="translate(-0.312 -70.259)" fill="#1d1d1b"/>
    <path id="Path_19" data-name="Path 19" d="M12.451,182.78a1.7,1.7,0,0,1,1.273.522,1.741,1.741,0,0,1,.516,1.279,1.759,1.759,0,0,1-.516,1.279,1.8,1.8,0,0,1-2.534,0,1.753,1.753,0,0,1-.51-1.279,1.735,1.735,0,0,1,.51-1.279,1.7,1.7,0,0,1,1.261-.522Zm.973,1.8a.973.973,0,0,0-.282-.714.949.949,0,0,0-.69-.282.913.913,0,0,0-.666.282,1.033,1.033,0,0,0,0,1.417.9.9,0,0,0,.666.288.931.931,0,0,0,.69-.288.973.973,0,0,0,.282-.714Z" transform="translate(-4.267 -73.039)" fill="#1d1d1b"/>
    <path id="Path_20" data-name="Path 20" d="M23.862,183.587H18.11V175.83h5.752v1.033H19.143v5.674h4.719Z" transform="translate(-7.237 -70.263)" fill="#1d1d1b"/>
    <path id="Path_21" data-name="Path 21" d="M31.829,182.78a1.817,1.817,0,0,1,1.291,3.08,1.735,1.735,0,0,1-1.273.516,1.717,1.717,0,0,1-1.261-.516,1.759,1.759,0,0,1-.516-1.279,1.741,1.741,0,0,1,.516-1.279A1.7,1.7,0,0,1,31.829,182.78Zm.967,1.8a.973.973,0,0,0-.282-.714.955.955,0,0,0-1.357,0,1.045,1.045,0,0,0,0,1.417.943.943,0,0,0,1.357,0,.973.973,0,0,0,.252-.714Z" transform="translate(-12.016 -73.04)" fill="#1d1d1b"/>
    <path id="Path_22" data-name="Path 22" d="M42.7,182.568V175.82h1.027v7.763h-6.3V175.82h1.045v6.748Z" transform="translate(-14.957 -70.259)" fill="#1d1d1b"/>
    <path id="Path_23" data-name="Path 23" d="M51.717,182.78a1.717,1.717,0,0,1,1.273.522,1.741,1.741,0,0,1,.516,1.279,1.759,1.759,0,0,1-.516,1.279,1.735,1.735,0,0,1-1.273.516,1.717,1.717,0,0,1-1.261-.516,1.759,1.759,0,0,1-.516-1.279,1.741,1.741,0,0,1,.516-1.279A1.7,1.7,0,0,1,51.717,182.78Zm.967,1.8a.949.949,0,0,0-.282-.714.931.931,0,0,0-.684-.282.913.913,0,0,0-.666.282,1.033,1.033,0,0,0,0,1.417.894.894,0,0,0,.666.288.919.919,0,0,0,.684-.288.949.949,0,0,0,.282-.714Z" transform="translate(-19.956 -73.039)" fill="#1d1d1b"/>
    <path id="Path_24" data-name="Path 24" d="M65.153,179.756a3.662,3.662,0,0,1-1.141,2.7,3.759,3.759,0,0,1-2.732,1.117,3.663,3.663,0,0,1-2.708-1.117,3.891,3.891,0,0,1,0-5.47A3.674,3.674,0,0,1,61.3,175.83a3.9,3.9,0,0,1,3.873,3.927Zm-1.075,0a2.768,2.768,0,0,0-.817-2.023,2.72,2.72,0,0,0-3.945,0,2.846,2.846,0,0,0-.793,2.011,2.78,2.78,0,0,0,.8,1.963,2.792,2.792,0,0,0,4.749-1.951Zm-3.794,0a1.027,1.027,0,0,1,.258-.739.913.913,0,0,1,.751-.312.949.949,0,0,1,.708.324.961.961,0,0,1,.252.738.985.985,0,0,1-.294.648,1.009,1.009,0,0,1-1.381,0,1.033,1.033,0,0,1-.294-.672Z" transform="translate(-22.957 -70.262)" fill="#1d1d1b"/>
    <path id="Path_25" data-name="Path 25" d="M77.087,180.209h-1.8v3.374H74.229v-3.374H72.38v-1.015h1.849V175.82h1.027v3.374h1.8Z" transform="translate(-28.923 -70.259)" fill="#1d1d1b"/>
    <path id="Path_26" data-name="Path 26" d="M88.435,183.587H87.42V175.83h1.015Z" transform="translate(-34.933 -70.263)" fill="#1d1d1b"/>
    <path id="Path_27" data-name="Path 27" d="M101.027,180.209H99.19v3.374H98.163v-3.374H96.32v-1.015h1.843V175.82H99.19v3.374h1.837Z" transform="translate(-38.49 -70.259)" fill="#1d1d1b"/>
    <path id="Path_28" data-name="Path 28" d="M110.619,175.816l3.266,7.763h-1.111l-2.726-6.454-2.732,6.448H106.2l3.29-7.763Z" transform="translate(-42.438 -70.255)" fill="#1d1d1b"/>
    <path id="Path_29" data-name="Path 29" d="M122.341,180.225a1.8,1.8,0,0,1,1.273.486,1.6,1.6,0,0,1,.516,1.2,1.555,1.555,0,0,1-.516,1.2,1.8,1.8,0,0,1-1.273.486,1.765,1.765,0,0,1-1.261-.486,1.549,1.549,0,0,1-.51-1.2,1.6,1.6,0,0,1,.51-1.2A1.765,1.765,0,0,1,122.341,180.225Zm.036-4.395a1.8,1.8,0,0,1,1.273.492,1.654,1.654,0,0,1,0,2.4,1.8,1.8,0,0,1-1.273.486,1.759,1.759,0,0,1-1.255-.486,1.549,1.549,0,0,1-.522-1.2,1.567,1.567,0,0,1,.522-1.2,1.765,1.765,0,0,1,1.255-.492Zm.979,6.064a.943.943,0,0,0-.294-.708,1.015,1.015,0,0,0-1.429,0,1,1,0,0,0,0,1.417,1.033,1.033,0,0,0,1.429,0,.943.943,0,0,0,.294-.708Zm.036-4.389a.937.937,0,0,0-.294-.714.978.978,0,0,0-.72-.288.955.955,0,0,0-.7.288.936.936,0,0,0-.294.714.919.919,0,0,0,.294.7.955.955,0,0,0,.7.288.979.979,0,0,0,.72-.288A.919.919,0,0,0,123.391,177.5Z" transform="translate(-48.18 -70.262)" fill="#1d1d1b"/>
    <path id="Path_30" data-name="Path 30" d="M136.063,179.756a3.681,3.681,0,0,1-1.141,2.7,3.759,3.759,0,0,1-2.732,1.117,3.662,3.662,0,0,1-2.708-1.117,3.891,3.891,0,0,1,0-5.47,3.668,3.668,0,0,1,2.732-1.159,3.9,3.9,0,0,1,3.873,3.927Zm-1.075,0a2.768,2.768,0,0,0-.841-2.023,2.72,2.72,0,0,0-3.945,0,2.846,2.846,0,0,0-.793,2.011,2.78,2.78,0,0,0,.8,1.963,2.817,2.817,0,0,0,4.773-1.951Zm-3.794,0a1.027,1.027,0,0,1,.258-.738.913.913,0,0,1,.744-.312.931.931,0,0,1,.708.324.943.943,0,0,1,.258.738.985.985,0,0,1-.294.648,1.009,1.009,0,0,1-1.381,0,1.033,1.033,0,0,1-.294-.672Z" transform="translate(-51.293 -70.262)" fill="#1d1d1b"/>
    <path id="Path_31" data-name="Path 31" d="M145,181.1l3.4,1.393v1.045l-5.265-2.119,2.438-2.083-2.348-2.041,5.175-1.969v1.009l-3.23,1.237,1.885,1.651Z" transform="translate(-57.199 -70.059)" fill="#1d1d1b"/>
    <path id="Path_32" data-name="Path 32" d="M163.035,175.816l3.272,7.763H165.2l-2.762-6.454-2.738,6.448H158.58l3.29-7.763Z" transform="translate(-63.369 -70.255)" fill="#1d1d1b"/>
    <path id="Path_33" data-name="Path 33" d="M179.817,180.224a1.8,1.8,0,0,1,1.267.486,1.579,1.579,0,0,1,.516,1.2,1.537,1.537,0,0,1-.516,1.2,1.885,1.885,0,0,1-2.528,0,1.555,1.555,0,0,1-.516-1.2,1.6,1.6,0,0,1,.516-1.2A1.765,1.765,0,0,1,179.817,180.224Zm.03-4.395a1.8,1.8,0,0,1,1.279.492,1.668,1.668,0,0,1,0,2.4,1.8,1.8,0,0,1-1.279.486,1.759,1.759,0,0,1-1.255-.486,1.654,1.654,0,0,1,0-2.4,1.765,1.765,0,0,1,1.273-.492Zm.985,6.064a.967.967,0,0,0-.294-.708.979.979,0,0,0-.72-.294,1,1,0,0,0-.708,1.711.967.967,0,0,0,.708.288,1,1,0,0,0,.721-.288.967.967,0,0,0,.312-.708Zm.036-4.389a.961.961,0,0,0-.294-.714,1,1,0,0,0-.726-.288.973.973,0,0,0-.7.288.961.961,0,0,0-.294.714.943.943,0,0,0,.294.7.973.973,0,0,0,.7.288,1,1,0,0,0,.726-.288.943.943,0,0,0,.312-.7Z" transform="translate(-71.145 -70.262)" fill="#1d1d1b"/>
    <path id="Path_34" data-name="Path 34" d="M188.228,180.161v3.41H185.79V182.52H187.2v-5.71H185.82V175.79h2.4v3.332h1.411V175.79h2.4v1.021h-1.393v5.71h1.417v1.027h-2.42v-3.41Z" transform="translate(-74.243 -70.247)" fill="#1d1d1b"/>
    <path id="Path_35" data-name="Path 35" d="M205.917,179.756a3.8,3.8,0,0,1-1.141,2.7,3.686,3.686,0,0,1-2.708,1.117,3.644,3.644,0,0,1-2.678-1.117,3.939,3.939,0,0,1,0-5.482,3.6,3.6,0,0,1,2.7-1.147,3.681,3.681,0,0,1,2.732,1.153A3.8,3.8,0,0,1,205.917,179.756Zm-1.057,0a2.888,2.888,0,0,0-.823-2.059,2.468,2.468,0,0,0-1.927-.823,2.63,2.63,0,0,0-1.975.859,2.864,2.864,0,0,0,0,4,2.618,2.618,0,0,0,3.849,0,2.852,2.852,0,0,0,.871-2Z" transform="translate(-79.234 -70.262)" fill="#1d1d1b"/>
    <path id="Path_36" data-name="Path 36" d="M214.821,182.78a1.7,1.7,0,0,1,1.273.522,1.741,1.741,0,0,1,.516,1.279,1.759,1.759,0,0,1-.516,1.279,1.8,1.8,0,0,1-2.534,0,1.753,1.753,0,0,1-.51-1.279,1.735,1.735,0,0,1,.51-1.279,1.7,1.7,0,0,1,1.261-.522Zm.967,1.8a.967.967,0,0,0-.276-.714.949.949,0,0,0-.69-.282.913.913,0,0,0-.666.282,1.033,1.033,0,0,0,0,1.417.9.9,0,0,0,.666.288.931.931,0,0,0,.69-.288.967.967,0,0,0,.282-.714Z" transform="translate(-85.135 -73.039)" fill="#1d1d1b"/>
    <path id="Path_37" data-name="Path 37" d="M226.592,175.85l-2.5,3.855,2.522,3.891h-1.117l-1.969-3.032-1.969,3.032h-1.1l2.522-3.879-2.522-3.867Zm-4.485.811,1.423,2.2,1.453-2.2Z" transform="translate(-88.093 -70.271)" fill="#1d1d1b"/>
    <path id="Path_38" data-name="Path 38" d="M239.341,182.78a1.717,1.717,0,0,1,1.273.522,1.741,1.741,0,0,1,.516,1.279,1.759,1.759,0,0,1-.516,1.279,1.735,1.735,0,0,1-1.273.516,1.717,1.717,0,0,1-1.261-.516,1.753,1.753,0,0,1-.51-1.279,1.735,1.735,0,0,1,.51-1.279A1.7,1.7,0,0,1,239.341,182.78Zm.967,1.8a.967.967,0,0,0-.276-.714.955.955,0,0,0-.69-.282.913.913,0,0,0-.667.282,1.033,1.033,0,0,0,0,1.417.894.894,0,0,0,.666.288.937.937,0,0,0,.69-.288.967.967,0,0,0,.276-.714Z" transform="translate(-94.934 -73.039)" fill="#1d1d1b"/>
    <path id="Path_39" data-name="Path 39" d="M246,183.587h-1V175.83h1.015Z" transform="translate(-97.903 -70.263)" fill="#1d1d1b"/>
    <path id="Path_40" data-name="Path 40" d="M250.479,182.78a1.817,1.817,0,0,1,1.291,3.08,1.735,1.735,0,0,1-1.273.516,1.717,1.717,0,0,1-1.261-.516,1.759,1.759,0,0,1-.516-1.279,1.741,1.741,0,0,1,.516-1.279,1.7,1.7,0,0,1,1.243-.522Zm.967,1.8a.973.973,0,0,0-.282-.714.931.931,0,0,0-.684-.282.919.919,0,0,0-.672.282,1.033,1.033,0,0,0,0,1.417.9.9,0,0,0,.672.288.919.919,0,0,0,.684-.288.973.973,0,0,0,.282-.714Z" transform="translate(-99.389 -73.04)" fill="#1d1d1b"/>
    <path id="Path_41" data-name="Path 41" d="M261.878,183.587H256.12V175.83h5.758v1.033h-4.719v5.674h4.719Z" transform="translate(-102.347 -70.263)" fill="#1d1d1b"/>
    <path id="Path_42" data-name="Path 42" d="M269.821,180.225a1.8,1.8,0,0,1,1.273.486,1.6,1.6,0,0,1,.516,1.2,1.555,1.555,0,0,1-.516,1.2,1.8,1.8,0,0,1-1.273.486,1.765,1.765,0,0,1-1.261-.486,1.549,1.549,0,0,1-.51-1.2,1.6,1.6,0,0,1,.51-1.2A1.765,1.765,0,0,1,269.821,180.225Zm.036-4.395a1.8,1.8,0,0,1,1.273.492,1.654,1.654,0,0,1,0,2.4,1.8,1.8,0,0,1-1.273.486,1.759,1.759,0,0,1-1.255-.486,1.543,1.543,0,0,1-.516-1.2,1.561,1.561,0,0,1,.516-1.2,1.765,1.765,0,0,1,1.219-.492Zm.979,6.064a.961.961,0,0,0-.288-.708.985.985,0,0,0-.726-.294.961.961,0,0,0-.708.294,1,1,0,0,0,0,1.417.979.979,0,0,0,.708.288,1,1,0,0,0,.726-.288.96.96,0,0,0,.264-.708Zm.036-4.389a.937.937,0,0,0-.294-.714.979.979,0,0,0-.757-.258.955.955,0,0,0-.7.288.937.937,0,0,0-.294.714.919.919,0,0,0,.294.7.955.955,0,0,0,.7.288.979.979,0,0,0,.72-.288.919.919,0,0,0,.306-.732Z" transform="translate(-107.114 -70.262)" fill="#1d1d1b"/>
    <path id="Path_43" data-name="Path 43" d="M276.725,183.587H275.71V175.83h1.015Z" transform="translate(-110.175 -70.263)" fill="#1d1d1b"/>
    <path id="Path_44" data-name="Path 44" d="M1.12,145.784c0-.294.078-.486.234-.57a1.237,1.237,0,0,1,.6-.132.883.883,0,0,1,.51.108,1.2,1.2,0,0,1,.312.474,1.916,1.916,0,0,1,.384-.636.985.985,0,0,1,.666-.18.6.6,0,0,1,.516.3,1,1,0,0,1,.2.516.6.6,0,0,1-.3.5,1.165,1.165,0,0,1-.654.2.642.642,0,0,1-.468-.144c-.1-.138-.18-.24-.234-.324a2.546,2.546,0,0,1-.6.6,1.081,1.081,0,0,1-.45.1.654.654,0,0,1-.48-.222A.829.829,0,0,1,1.12,145.784Zm5.83,7.967H6.566a1.5,1.5,0,0,0-1.165.468,1.8,1.8,0,0,1-1.4.468,1.369,1.369,0,0,1,.354-.48,1.838,1.838,0,0,0,.372-.456,1.546,1.546,0,0,0-.252,0H3.594a.528.528,0,0,0-.21.036,3.056,3.056,0,0,1-1.135-.414c-.378-.222-.564-.763-.564-1.627a1.8,1.8,0,0,1,.919-1.717l2.149-.6a.66.66,0,0,0,0-.42,2.215,2.215,0,0,0-.144-.45,1.141,1.141,0,0,0-.444-.4c-.246-.156-.372-.306-.372-.456,0-.372.1-.6.294-.7a1.705,1.705,0,0,1,.75-.144,1.045,1.045,0,0,1,.847.42,1.759,1.759,0,0,1,.342,1.129v2.828a7.018,7.018,0,0,0,.12,1.1H6.98Zm-3.807-1.8a.276.276,0,0,0,.234.276,1.854,1.854,0,0,0,.558.072h.438c.42,0,.6-.156.6-.462v-.252L4.9,150.9c0-.174-.108-.264-.324-.264a1.615,1.615,0,0,0-.6.15,2.1,2.1,0,0,0-.516.294.739.739,0,0,0-.228.372,1.717,1.717,0,0,0-.09.516Z" transform="translate(-0.448 -57.88)" fill="#1d1d1b"/>
    <path id="Path_45" data-name="Path 45" d="M14.667,157.91H13.22a.708.708,0,0,1-.216.048c-.108,0-.24-.114-.39-.33a2.719,2.719,0,0,0-.4-.492c-.138.258-.246.45-.33.6a.4.4,0,0,1-.372.192H10.17v-1.4h.7c.756,0,1.2-.21,1.3-.636s.3-.636.6-.636a2.858,2.858,0,0,1,.462.636,1.165,1.165,0,0,0,1,.636h.462ZM10.716,159.9a.666.666,0,0,1,.228-.474.822.822,0,0,1,.6-.228.721.721,0,0,1,.54.174.762.762,0,0,1,.162.528.889.889,0,0,1-.21.564.757.757,0,0,1-.6.258.691.691,0,0,1-.456-.264A.817.817,0,0,1,10.716,159.9Zm1.969-.042a.66.66,0,0,1,.222-.474.8.8,0,0,1,.6-.228.672.672,0,0,1,.564.2.835.835,0,0,1,.144.5.69.69,0,0,1-.294.6,1.111,1.111,0,0,1-.642.2,1.326,1.326,0,0,1-.4-.228.732.732,0,0,1-.2-.588Z" transform="translate(-4.064 -62.039)" fill="#1d1d1b"/>
    <path id="Path_46" data-name="Path 46" d="M17,154.78h.3a3.725,3.725,0,0,0,.528-.048,4.8,4.8,0,0,0,.672-.168c-.24-.456-.408-.768-.492-.937a1.5,1.5,0,0,1-.132-.7,1.873,1.873,0,0,1,.672-1.339,2.468,2.468,0,0,1,1.8-.648q1.4,0,1.4,1.171a.852.852,0,0,1-.294.654,1.057,1.057,0,0,1-.763.282,2.69,2.69,0,0,1-.636-.1,1.651,1.651,0,0,1-.6-.306v.264a2.756,2.756,0,0,0,.1.69,1.321,1.321,0,0,0,.6.72,2.185,2.185,0,0,0,1.2.33,9.006,9.006,0,0,0,1.387-.15,9.4,9.4,0,0,1,1.2-.156,1.2,1.2,0,0,1,.744.2.9.9,0,0,1,.246.726.69.69,0,0,1-.222.6,1.123,1.123,0,0,1-.654.162,6.022,6.022,0,0,1-.744-.072c-.342-.054-.534-.078-.57-.078a19.4,19.4,0,0,0-2.4.138c-.708.1-1.117.138-1.2.138H17Z" transform="translate(-6.793 -60.314)" fill="#1d1d1b"/>
    <path id="Path_47" data-name="Path 47" d="M36.3,153.594a1.2,1.2,0,0,0-.228-.036h-.546a1.086,1.086,0,0,0-.462.072,2.479,2.479,0,0,0-.516.6,2.173,2.173,0,0,1-1.081.72l-.072-.216a5.721,5.721,0,0,1,.528-.787,4.2,4.2,0,0,0,.282-1.8l-.738-4.365c-.168-.282-.342-.6-.522-.907a1.951,1.951,0,0,1-.27-.949,1.423,1.423,0,0,1,.408-1.111,1.2,1.2,0,0,1,.787-.366.51.51,0,0,1,.462.288,1.4,1.4,0,0,1,.168.714,6.389,6.389,0,0,1-.114.955,5.085,5.085,0,0,0-.1.835c.126.853.264,1.657.426,2.4s.282,1.309.384,1.7l.228.859h1.009Z" transform="translate(-13.056 -57.723)" fill="#1d1d1b"/>
    <path id="Path_48" data-name="Path 48" d="M38,156.265h1.2a3.722,3.722,0,0,1,.546-1.117,1.2,1.2,0,0,1,1.027-.492,1.453,1.453,0,0,1,1.429.8c.288.54.48.8.57.8h.937v1.4h-.967c-.126,0-.318.21-.6.6a1.255,1.255,0,0,1-1.135.6,1.357,1.357,0,0,1-1.2-.6c-.27-.414-.432-.6-.492-.6h-1.3Zm2.45.678c.072.408.246.6.516.6a.306.306,0,0,0,.324-.21,1.8,1.8,0,0,0,.072-.564,1.513,1.513,0,0,0-.15-.528.408.408,0,0,0-.372-.216.33.33,0,0,0-.306.2,1.015,1.015,0,0,0-.108.48,1.327,1.327,0,0,0,.03.234Z" transform="translate(-15.185 -61.799)" fill="#1d1d1b"/>
    <path id="Path_49" data-name="Path 49" d="M51.3,155.472H49.85a.678.678,0,0,1-.21.048c-.114,0-.24-.114-.39-.33a2.719,2.719,0,0,0-.4-.492c-.138.258-.252.45-.33.6a.4.4,0,0,1-.372.192H46.8v-1.4h.72c.756,0,1.2-.21,1.3-.636s.3-.636.6-.636a2.743,2.743,0,0,1,.456.636,1.2,1.2,0,0,0,1.009.636h.462Zm-3.951-5.614a.679.679,0,0,1,.228-.474.793.793,0,0,1,.6-.228.7.7,0,0,1,.54.174.751.751,0,0,1,.156.528.835.835,0,0,1-.21.564.738.738,0,0,1-.6.252.678.678,0,0,1-.456-.258.793.793,0,0,1-.258-.558Zm1.915,0a.678.678,0,0,1,.228-.474.781.781,0,0,1,.6-.228.631.631,0,0,1,.552.2.835.835,0,0,1,.144.5.69.69,0,0,1-.288.6,1.117,1.117,0,0,1-.648.2,1.351,1.351,0,0,1-.39-.222.738.738,0,0,1-.2-.576Z" transform="translate(-18.702 -59.601)" fill="#1d1d1b"/>
    <path id="Path_50" data-name="Path 50" d="M53.81,155.109H55c.6,0,1.2,0,1.8-.06s1.2-.078,1.657-.114a1.081,1.081,0,0,0-.6-1.057l-.961-.408-.456.366a.642.642,0,0,1-.4.15.678.678,0,0,1-.678-.336,1.567,1.567,0,0,1-.168-.72.973.973,0,0,1,.438-.895,1.981,1.981,0,0,1,1.081-.276,2.4,2.4,0,0,1,2.011,1.135,8.286,8.286,0,0,0,1.2,1.435,1.8,1.8,0,0,0,.69.372,3.178,3.178,0,0,0,.72.072h.372a1.4,1.4,0,0,1,.817.186c.18.12.264.408.264.853a1.2,1.2,0,0,1-.174.721.642.642,0,0,1-.6.252c-.06,0-.36-.072-.913-.2a6.141,6.141,0,0,0-1.471-.21c-1.393,0-2.474,0-3.242.06s-1.369.054-1.8.054H53.78Zm4.575,3.146a.685.685,0,0,1,.228-.48.8.8,0,0,1,.6-.222.6.6,0,0,1,.7.7.859.859,0,0,1-.216.552.714.714,0,0,1-.6.264.678.678,0,0,1-.462-.264A.81.81,0,0,1,58.385,158.255Z" transform="translate(-21.491 -60.643)" fill="#1d1d1b"/>
    <path id="Path_51" data-name="Path 51" d="M77.607,153.807a2.054,2.054,0,0,1-1.069.348.781.781,0,0,1-.45-.126.991.991,0,0,1-.312-.408,1.027,1.027,0,0,1-.1-.552h-.408a7.8,7.8,0,0,1-2.4-.288,4.581,4.581,0,0,1-1.873-1.627,3.141,3.141,0,0,1-.36-.8,3.5,3.5,0,0,1-.18-1.093v-.306c.054.108.108.216.168.318.084.234.138.4.168.486a4.455,4.455,0,0,0,1.681,1.747,4.545,4.545,0,0,0,2.257.558,7.8,7.8,0,0,0,1.285-.12,6.216,6.216,0,0,0,1.159-.276c.276-.1.408-.264.408-.492v-.6a6.742,6.742,0,0,0-1.2-3.921,3.56,3.56,0,0,0-3-1.753,1.605,1.605,0,0,0-.24,0l-.6.072a1.333,1.333,0,0,0-.913.6,10.333,10.333,0,0,0-.967,1.693.33.33,0,0,1-.09-.048,4.2,4.2,0,0,1,.27-1.273,3.645,3.645,0,0,1,1.009-1.471,2.18,2.18,0,0,1,1.453-.684,4.407,4.407,0,0,1,3.632,1.8,6.52,6.52,0,0,1,1.4,4.137V150.8c.1-.378.186-.8.282-1.285a7.1,7.1,0,0,0,.138-1.315v-1.573a10.207,10.207,0,0,0-.048-1.057,4.114,4.114,0,0,0-.21-.853.5.5,0,0,1-.174-.036l-.18-.078a.492.492,0,0,1-.426-.5,1.249,1.249,0,0,1,.228-.66,6.258,6.258,0,0,1,.444-.6h.03a1.033,1.033,0,0,1,.5-.174c.282,0,.492.2.6.6a4.683,4.683,0,0,1,.2,1.495l-.042,1.417a21.615,21.615,0,0,1-.2,3.176,6,6,0,0,1-.552,1.939,2.648,2.648,0,0,1-.7.889c-.06.366-.114.684-.174.949A1.051,1.051,0,0,1,77.607,153.807Z" transform="translate(-28.152 -57.012)" fill="#1d1d1b"/>
    <path id="Path_52" data-name="Path 52" d="M87.731,146.491a1.063,1.063,0,0,0-.234-.57l-.354-.426a1.459,1.459,0,0,1,.408-1.2,1.333,1.333,0,0,1,.985-.534.546.546,0,0,1,.534.336.949.949,0,0,1,.108.558c-.066.234-.132.48-.21.744a3.213,3.213,0,0,0-.108.865,18.1,18.1,0,0,0,.2,2.4,18.612,18.612,0,0,1,.2,2.251,3.83,3.83,0,0,1-.714,1.759,3.254,3.254,0,0,1-1.9,1.483,8.916,8.916,0,0,0,.9-1.255,3.6,3.6,0,0,0,.354-.913,5.226,5.226,0,0,0,.132-.762c0-.21.03-.408.03-.6a5.707,5.707,0,0,0-.03-.672c-.03-.276-.036-.516-.054-.738Z" transform="translate(-34.626 -57.447)" fill="#1d1d1b"/>
    <path id="Path_53" data-name="Path 53" d="M97.54,145.784c0-.294.078-.486.24-.57a1.2,1.2,0,0,1,.6-.132.883.883,0,0,1,.51.108,1.159,1.159,0,0,1,.312.474,1.915,1.915,0,0,1,.384-.636,1,1,0,0,1,.666-.18.6.6,0,0,1,.516.3.949.949,0,0,1,.2.516.6.6,0,0,1-.3.5,1.164,1.164,0,0,1-.654.2.642.642,0,0,1-.468-.144l-.234-.324a2.437,2.437,0,0,1-.6.6,1.081,1.081,0,0,1-.45.1.654.654,0,0,1-.48-.222A.829.829,0,0,1,97.54,145.784Zm5.836,7.967h-.39a1.5,1.5,0,0,0-1.165.468,1.8,1.8,0,0,1-1.4.468,1.333,1.333,0,0,1,.36-.48,1.8,1.8,0,0,0,.366-.456,1.55,1.55,0,0,0-.252,0h-.877a.529.529,0,0,0-.21.036,3.056,3.056,0,0,1-1.135-.426c-.378-.222-.564-.763-.564-1.627a1.8,1.8,0,0,1,.919-1.717l2.149-.6a.7.7,0,0,0,0-.42,2.613,2.613,0,0,0-.15-.45,1.141,1.141,0,0,0-.444-.4c-.246-.156-.366-.306-.366-.456q0-.558.288-.7a1.723,1.723,0,0,1,.75-.144,1.033,1.033,0,0,1,.847.42,1.759,1.759,0,0,1,.342,1.129v2.828a7.018,7.018,0,0,0,.12,1.1h.841Zm-3.807-1.8a.27.27,0,0,0,.228.276,1.868,1.868,0,0,0,.564.072h.432c.42,0,.63-.156.63-.462l-.03-.252-.072-.684c0-.174-.108-.264-.318-.264a1.614,1.614,0,0,0-.6.15,2.227,2.227,0,0,0-.516.294.738.738,0,0,0-.228.372,1.723,1.723,0,0,0-.09.516Z" transform="translate(-38.977 -57.88)" fill="#1d1d1b"/>
    <path id="Path_54" data-name="Path 54" d="M106.59,155.8h1.645l.69.174a.6.6,0,0,0,.042-.126.683.683,0,0,0,0-.168.4.4,0,0,0-.048-.234,1.321,1.321,0,0,1-.09-.156c0-.054-.156-.078-.378-.078a.648.648,0,0,1-.5-.234.786.786,0,0,1-.2-.54.931.931,0,0,1,.294-.642.967.967,0,0,1,.751-.306c.246,0,.51.216.8.642a2.792,2.792,0,0,1,.438,1.609,2.708,2.708,0,0,1-.252,1.2c-.162.342-.366.516-.6.516-.12-.048-.282-.108-.5-.174a5.092,5.092,0,0,0-1.255-.1h-.817Zm.546,3.6a.678.678,0,0,1,.234-.48.8.8,0,0,1,.6-.228.7.7,0,0,1,.54.18.762.762,0,0,1,.162.528.864.864,0,0,1-.21.558.738.738,0,0,1-.6.258.69.69,0,0,1-.456-.264.781.781,0,0,1-.27-.54Zm1.8-.162a.66.66,0,0,1,.228-.474.823.823,0,0,1,.6-.228.648.648,0,0,1,.552.2.787.787,0,0,1,.15.5.709.709,0,0,1-.294.6,1.123,1.123,0,0,1-.642.192,1.309,1.309,0,0,1-.4-.222.738.738,0,0,1-.2-.558Z" transform="translate(-42.594 -61.335)" fill="#1d1d1b"/>
    <path id="Path_55" data-name="Path 55" d="M117.7,153.594a1.2,1.2,0,0,0-.228-.036h-.546a1.05,1.05,0,0,0-.456.072,2.317,2.317,0,0,0-.522.6,2.173,2.173,0,0,1-1.069.745l-.072-.216a5.722,5.722,0,0,1,.528-.787,4.2,4.2,0,0,0,.288-1.8l-.787-4.389c-.168-.282-.342-.6-.522-.907a1.951,1.951,0,0,1-.27-.949,1.441,1.441,0,0,1,.408-1.111,1.2,1.2,0,0,1,.793-.366.5.5,0,0,1,.456.288,1.4,1.4,0,0,1,.168.714,6.389,6.389,0,0,1-.114.955,4.8,4.8,0,0,0-.1.835c.12.853.264,1.657.42,2.4s.288,1.309.39,1.7.174.672.222.859H117.7Z" transform="translate(-45.573 -57.723)" fill="#1d1d1b"/>
    <path id="Path_56" data-name="Path 56" d="M119.44,156.268h1.2a3.6,3.6,0,0,1,.552-1.117,1.2,1.2,0,0,1,1.021-.492,1.453,1.453,0,0,1,1.369.8c.288.54.48.8.57.8h.937v1.4h-.937c-.126,0-.318.21-.6.6a1.255,1.255,0,0,1-1.135.6,1.357,1.357,0,0,1-1.2-.6c-.27-.414-.432-.6-.492-.6a1.834,1.834,0,0,0-.24,0H119.44Zm2.45.678c.066.408.24.6.51.6a.306.306,0,0,0,.324-.21,1.8,1.8,0,0,0,.072-.564,1.4,1.4,0,0,0-.15-.528.4.4,0,0,0-.372-.216.336.336,0,0,0-.306.2,1.014,1.014,0,0,0-.108.48.98.98,0,0,0,.03.234Z" transform="translate(-47.729 -61.802)" fill="#1d1d1b"/>
    <path id="Path_57" data-name="Path 57" d="M128.18,155.109h.564a16.8,16.8,0,0,0,1.681-.054c.534-.054,1.051-.072,1.555-.12a1.081,1.081,0,0,0-.6-1.057l-.961-.408q-.15.126-.36.324a.7.7,0,0,1-.474.192q-.552,0-.7-.324a1.585,1.585,0,0,1-.162-.732.973.973,0,0,1,.438-.895,1.982,1.982,0,0,1,1.081-.276,2.492,2.492,0,0,1,2.059,1.153,8.794,8.794,0,0,0,1.285,1.519,2.527,2.527,0,0,0,1.153.48q.714.126,1.351.18v1.4h-.462a8.369,8.369,0,0,1-.913-.06,13.412,13.412,0,0,0-1.5-.066c-1.375,0-2.348,0-2.924.06a14.482,14.482,0,0,1-1.567.054H128.2Z" transform="translate(-51.221 -60.643)" fill="#1d1d1b"/>
    <path id="Path_58" data-name="Path 58" d="M143.932,150.736a8.208,8.208,0,0,1-.3,2.215c-.2.726-.6,1.093-1.135,1.093-.072,0-.21-.1-.4-.312a.772.772,0,0,0-.48-.318h-.931v-1.4h1.285a.6.6,0,0,1,.36.114l.282.18c0-.39.06-.823.084-1.291s.03-.913.03-1.321a6.085,6.085,0,0,0-.126-1.309c-.09-.378-.156-.666-.2-.871a3.987,3.987,0,0,0-.5-1.021,2.492,2.492,0,0,1-.432-1.255,1.2,1.2,0,0,1,.39-.895,1.135,1.135,0,0,1,.811-.342c.174,0,.348.12.516.372a1.435,1.435,0,0,1,.252.829,3.438,3.438,0,0,1-.036.426,1.485,1.485,0,0,0,0,.378,9.265,9.265,0,0,0,.156,1.633c.108.6.18,1.021.21,1.237s.066.51.114.871A7.805,7.805,0,0,1,143.932,150.736Z" transform="translate(-56.22 -57.543)" fill="#1d1d1b"/>
    <path id="Path_59" data-name="Path 59" d="M147.541,146.491a1.111,1.111,0,0,0-.234-.57l-.354-.426a1.459,1.459,0,0,1,.408-1.2,1.333,1.333,0,0,1,.985-.534.546.546,0,0,1,.534.336.949.949,0,0,1,.108.558c-.066.234-.138.48-.21.744a3.213,3.213,0,0,0-.108.865,18.1,18.1,0,0,0,.2,2.4,18.616,18.616,0,0,1,.2,2.251,3.83,3.83,0,0,1-.714,1.759,3.254,3.254,0,0,1-1.9,1.483,8.914,8.914,0,0,0,.9-1.255,3.854,3.854,0,0,0,.354-.913,6.191,6.191,0,0,0,.132-.762v-1.273a6.453,6.453,0,0,0-.06-.738Z" transform="translate(-58.526 -57.447)" fill="#1d1d1b"/>
    <path id="Path_60" data-name="Path 60" d="M152.774,160.576a5.446,5.446,0,0,0,2.93-1.381,3.512,3.512,0,0,0,1.237-2.672,3.053,3.053,0,0,0-.6.108,3.06,3.06,0,0,1-.6.108c-.066,0-.264-.03-.6-.084a.973.973,0,0,1-.726-.546,3.188,3.188,0,0,1-.234-1.387,2.846,2.846,0,0,1,.654-2.077,1.933,1.933,0,0,1,1.363-.654,1.8,1.8,0,0,1,1.609,1.093,5.361,5.361,0,0,1,.6,2.648,5.674,5.674,0,0,1-1.771,4.239,5.53,5.53,0,0,1-3.957,1.723,8,8,0,0,1-1.843-.246,4.047,4.047,0,0,1-1.9-1.057c-.564-.546-1.009-1-1.333-1.381a3.363,3.363,0,0,1-.642-1.051c-.108-.318-.174-.528-.2-.636a.967.967,0,0,1-.042-.2c0-.108.036-.144.114-.114a.174.174,0,0,1,.138.162,2.41,2.41,0,0,1,.036.258,8.157,8.157,0,0,0,1.1,1.387,9.063,9.063,0,0,0,1.273.949,5.187,5.187,0,0,0,1.465.69,5.253,5.253,0,0,0,1.267.168A6.054,6.054,0,0,0,152.774,160.576Zm3.2-7.049c-.216,0-.36.15-.444.444a2.643,2.643,0,0,0-.084.63.649.649,0,0,0,.216.492.552.552,0,0,0,.456.246,1.068,1.068,0,0,0,.6-.2.522.522,0,0,0,.138-.366v-.222a1.435,1.435,0,0,0-.234-.66A.6.6,0,0,0,155.974,153.527Z" transform="translate(-58.626 -60.736)" fill="#1d1d1b"/>
    <path id="Path_61" data-name="Path 61" d="M173.3,145.784c0-.294.078-.486.24-.57a1.2,1.2,0,0,1,.6-.132.883.883,0,0,1,.51.108,1.158,1.158,0,0,1,.312.474,1.916,1.916,0,0,1,.384-.636.985.985,0,0,1,.666-.18.6.6,0,0,1,.516.3.949.949,0,0,1,.2.516.6.6,0,0,1-.3.5,1.165,1.165,0,0,1-.654.2.642.642,0,0,1-.468-.144l-.234-.324a2.546,2.546,0,0,1-.6.6,1.081,1.081,0,0,1-.45.1.655.655,0,0,1-.48-.222A.829.829,0,0,1,173.3,145.784Zm5.824,7.967h-.384a1.5,1.5,0,0,0-1.165.468,1.8,1.8,0,0,1-1.4.468,1.369,1.369,0,0,1,.354-.48,1.837,1.837,0,0,0,.372-.456,1.549,1.549,0,0,0-.252,0h-.877a.528.528,0,0,0-.21.036,3.057,3.057,0,0,1-1.135-.426c-.378-.222-.564-.763-.564-1.627a1.8,1.8,0,0,1,.919-1.717l2.149-.6a.661.661,0,0,0,0-.42,2.215,2.215,0,0,0-.144-.45,1.141,1.141,0,0,0-.444-.4c-.246-.156-.366-.306-.366-.456q0-.558.288-.7a1.706,1.706,0,0,1,.75-.144,1.045,1.045,0,0,1,.847.42,1.759,1.759,0,0,1,.342,1.129c0,.3,0,.6,0,.919v1.909a7.017,7.017,0,0,0,.12,1.1h.8Zm-3.807-1.8a.276.276,0,0,0,.234.276,1.868,1.868,0,0,0,.564.072h.432c.42,0,.63-.156.63-.462l-.03-.252-.072-.684c0-.174-.108-.264-.318-.264a1.615,1.615,0,0,0-.6.15,2.1,2.1,0,0,0-.516.294.739.739,0,0,0-.228.372,1.717,1.717,0,0,0-.09.516Z" transform="translate(-69.252 -57.88)" fill="#1d1d1b"/>
    <path id="Path_62" data-name="Path 62" d="M182.3,155.109h.564a16.8,16.8,0,0,0,1.681-.054c.534-.054,1.057-.072,1.555-.12a1.087,1.087,0,0,0-.6-1.057l-.967-.408q-.15.126-.36.324a.7.7,0,0,1-.474.192.709.709,0,0,1-.7-.324,1.585,1.585,0,0,1-.162-.732.973.973,0,0,1,.438-.895,1.981,1.981,0,0,1,1.081-.276,2.492,2.492,0,0,1,2.059,1.153,8.793,8.793,0,0,0,1.285,1.519,2.527,2.527,0,0,0,1.153.48c.474.084.925.144,1.357.18v1.4h-.468a8.224,8.224,0,0,1-.907-.06,13.455,13.455,0,0,0-1.507-.066c-1.375,0-2.348,0-2.918.06a14.541,14.541,0,0,1-1.573.054h-.522Z" transform="translate(-72.848 -60.643)" fill="#1d1d1b"/>
    <path id="Path_63" data-name="Path 63" d="M206.318,155.169v1.453h0a3.19,3.19,0,0,0-.5,0,.408.408,0,0,0-.45.282.348.348,0,0,1-.354.282.648.648,0,0,1-.57-.432c-.15-.294-.306-.438-.486-.438a.961.961,0,0,0-.51.132,5.945,5.945,0,0,1-1.8.132c-.8,0-1.393,0-1.771-.036l-.979-.06a3.063,3.063,0,0,0-.534.042l-.444.078a1.027,1.027,0,0,0-.45.282.912.912,0,0,1-.6.246.6.6,0,0,1-.522-.246c-.108-.168-.2-.246-.27-.246h-.865a1.561,1.561,0,0,1-.3,0v-1.4h.7a3.8,3.8,0,0,1,.084-.919c.06-.2.162-.3.306-.3.354,0,.6.36.745,1.075l1.075-1.279a5.835,5.835,0,0,1,1.639-1.3,5.205,5.205,0,0,1,2.588-.6,3.4,3.4,0,0,1,2.4.943,3.488,3.488,0,0,1,1.135,2.342Zm-2.33-.318a2.138,2.138,0,0,0-.943-1.027,3.146,3.146,0,0,0-1.2-.51c-.318-.036-.528-.06-.63-.06a3.248,3.248,0,0,0-1.561.474,3.794,3.794,0,0,0-1.357,1.315,4.159,4.159,0,0,0,.648.114c.27.03.7.042,1.309.042a14.765,14.765,0,0,0,1.915-.1,11.485,11.485,0,0,0,1.8-.252Z" transform="translate(-77.887 -60.702)" fill="#1d1d1b"/>
    <path id="Path_64" data-name="Path 64" d="M216.492,150.716a8.208,8.208,0,0,1-.3,2.215c-.2.726-.6,1.093-1.135,1.093-.078,0-.21-.1-.4-.312a.772.772,0,0,0-.48-.318h-.931v-1.4h1.285a.6.6,0,0,1,.36.114l.282.18c0-.39.054-.823.078-1.291s.036-.913.036-1.321a5.712,5.712,0,0,0-.132-1.309c-.084-.378-.15-.666-.192-.871a3.987,3.987,0,0,0-.5-1.021,2.491,2.491,0,0,1-.432-1.255,1.2,1.2,0,0,1,.39-.895,1.135,1.135,0,0,1,.8-.372c.174,0,.348.12.516.372a1.435,1.435,0,0,1,.252.829,3.449,3.449,0,0,1-.036.426,1.982,1.982,0,0,0,0,.378,9.313,9.313,0,0,0,.144,1.627c.108.6.18,1.021.21,1.237s.066.51.114.871A7.8,7.8,0,0,1,216.492,150.716Z" transform="translate(-85.216 -57.523)" fill="#1d1d1b"/>
    <path id="Path_65" data-name="Path 65" d="M220.1,146.491a1.165,1.165,0,0,0-.234-.57l-.354-.426a1.477,1.477,0,0,1,.4-1.2,1.357,1.357,0,0,1,.991-.534.546.546,0,0,1,.534.336.948.948,0,0,1,.108.558c-.066.234-.138.48-.21.745a3.213,3.213,0,0,0-.108.865,18.1,18.1,0,0,0,.2,2.4,18.611,18.611,0,0,1,.2,2.251,3.831,3.831,0,0,1-.714,1.759,3.254,3.254,0,0,1-1.9,1.483,8.314,8.314,0,0,0,.895-1.255,3.645,3.645,0,0,0,.36-.913,6.2,6.2,0,0,0,.132-.762c0-.21,0-.408,0-.6v-.672a6.453,6.453,0,0,0-.06-.738Z" transform="translate(-87.521 -57.447)" fill="#1d1d1b"/>
    <path id="Path_66" data-name="Path 66" d="M230.4,147.153a.678.678,0,0,1,.234-.48.8.8,0,0,1,.6-.228.721.721,0,0,1,.54.174.78.78,0,0,1,.162.534.889.889,0,0,1-.21.564.751.751,0,0,1-.6.252.69.69,0,0,1-.456-.264A.78.78,0,0,1,230.4,147.153Zm1.2,5.4a2.4,2.4,0,0,1,.949-1.921,3.368,3.368,0,0,1,2.215-.793h.39a1.759,1.759,0,0,0-.432-1.141,1.633,1.633,0,0,1-.432-.738,1.087,1.087,0,0,1,.27-.751.919.919,0,0,1,.708-.3.985.985,0,0,1,.774.252.913.913,0,0,1,.21.6,1.087,1.087,0,0,1-.048.348l-.072.252c.138.42.27.9.4,1.447a7.864,7.864,0,0,1,.192,1.8,5.854,5.854,0,0,1-.426,2.221,3.35,3.35,0,0,1-1.333,1.663,1.235,1.235,0,0,1,0-.234,1.933,1.933,0,0,1,.162-.648,3.469,3.469,0,0,0,.2-.69l-.889.36a2.486,2.486,0,0,1-.907.174,1.8,1.8,0,0,1-1.429-.51,1.981,1.981,0,0,1-.486-1.363Zm.985-5.668a.66.66,0,0,1,.222-.474.8.8,0,0,1,.6-.228.666.666,0,0,1,.564.2.835.835,0,0,1,.144.5.685.685,0,0,1-.294.6,1.1,1.1,0,0,1-.642.192,1.2,1.2,0,0,1-.4-.222.733.733,0,0,1-.18-.54Zm.534,5.806a.654.654,0,0,0,.306.426,1.044,1.044,0,0,0,.558.144,1.8,1.8,0,0,0,.744-.168,1.291,1.291,0,0,0,.558-.4,1.322,1.322,0,0,0,.228-.474,3,3,0,0,0,.048-.546c-.03-.354-.1-.6-.2-.66a.5.5,0,0,0-.33-.132,1.909,1.909,0,0,0-.883.264,1.675,1.675,0,0,0-.708.6,2.954,2.954,0,0,0-.27.534.852.852,0,0,0-.006.444Z" transform="translate(-92.069 -58.415)" fill="#1d1d1b"/>
    <path id="Path_67" data-name="Path 67" d="M236.868,160.792a6.6,6.6,0,0,1-3.716-1.2,4.131,4.131,0,0,1-1.981-2.972l.228.186a7.066,7.066,0,0,0,2.041,2.215,5.361,5.361,0,0,0,3.08.811,7.847,7.847,0,0,0,1.927-.234,4.862,4.862,0,0,0,1.543-.66,6.243,6.243,0,0,0,1.4-1.5,3.812,3.812,0,0,0,.786-2.3,2.839,2.839,0,0,0,0-.348c0-.09-.24-.228-.69-.414a.973.973,0,0,1-.678-.949c0-.72.282-1.081.841-1.081a1.405,1.405,0,0,1,1.2.8,3.512,3.512,0,0,1,.5,1.879,5.037,5.037,0,0,1-.751,2.462,7.751,7.751,0,0,1-1.345,1.855,7.546,7.546,0,0,1-1.927,1.021,6.783,6.783,0,0,1-2.456.42Z" transform="translate(-92.377 -60.88)" fill="#1d1d1b"/>
    <path id="Path_68" data-name="Path 68" d="M254.571,146.491a1.063,1.063,0,0,0-.234-.57l-.354-.426a1.459,1.459,0,0,1,.408-1.2,1.333,1.333,0,0,1,.985-.534.546.546,0,0,1,.534.336.948.948,0,0,1,.108.558c-.066.234-.132.48-.21.744a3.212,3.212,0,0,0-.108.865,18.1,18.1,0,0,0,.2,2.4,18.63,18.63,0,0,1,.2,2.251,3.83,3.83,0,0,1-.715,1.759,3.254,3.254,0,0,1-1.9,1.483,8.917,8.917,0,0,0,.9-1.255,3.6,3.6,0,0,0,.354-.913,5.225,5.225,0,0,0,.132-.762v-1.273c0-.276-.036-.516-.054-.738Z" transform="translate(-101.296 -57.447)" fill="#1d1d1b"/>
    <path id="Path_69" data-name="Path 69" d="M252.808,158.71a6.6,6.6,0,0,1-3.716-1.2,4.131,4.131,0,0,1-1.981-2.972l.228.186a7.067,7.067,0,0,0,2.041,2.215,5.356,5.356,0,0,0,3.074.811,7.86,7.86,0,0,0,1.933-.234,4.863,4.863,0,0,0,1.543-.66,6.365,6.365,0,0,0,1.4-1.495,3.813,3.813,0,0,0,.786-2.288,2.833,2.833,0,0,0,0-.348c0-.09-.24-.228-.69-.414a.967.967,0,0,1-.678-.949c0-.72.282-1.081.841-1.081a1.4,1.4,0,0,1,1.2.8,3.512,3.512,0,0,1,.5,1.879,5.038,5.038,0,0,1-.75,2.462,7.752,7.752,0,0,1-1.345,1.855,7.548,7.548,0,0,1-1.927,1.021A6.785,6.785,0,0,1,252.808,158.71Zm2.041-10.849a.673.673,0,0,1,.222-.48.8.8,0,0,1,.6-.228.6.6,0,0,1,.708.708.835.835,0,0,1-.222.552.751.751,0,0,1-.6.258.655.655,0,0,1-.45-.258.787.787,0,0,1-.258-.552Z" transform="translate(-98.746 -58.798)" fill="#1d1d1b"/>
    <path id="Path_70" data-name="Path 70" d="M264.744,160.576a5.446,5.446,0,0,0,2.93-1.381,3.512,3.512,0,0,0,1.237-2.672,3.054,3.054,0,0,0-.6.108,3,3,0,0,1-.6.108c-.066,0-.264-.03-.6-.084a.973.973,0,0,1-.727-.546,3.188,3.188,0,0,1-.234-1.387,2.846,2.846,0,0,1,.654-2.077,1.934,1.934,0,0,1,1.363-.654,1.8,1.8,0,0,1,1.609,1.093,5.362,5.362,0,0,1,.6,2.648,5.674,5.674,0,0,1-1.8,4.239,5.524,5.524,0,0,1-3.957,1.723,8,8,0,0,1-1.843-.246,4.046,4.046,0,0,1-1.9-1.057c-.564-.546-1-1-1.327-1.381a3.4,3.4,0,0,1-.648-1.051c-.108-.318-.174-.528-.2-.636a.965.965,0,0,1-.042-.2c0-.108.036-.144.114-.114a.186.186,0,0,1,.144.162,1.071,1.071,0,0,0,.036.258,7.894,7.894,0,0,0,1.1,1.387,9.439,9.439,0,0,0,1.273.949,5.188,5.188,0,0,0,1.465.69,5.29,5.29,0,0,0,1.267.168,6.065,6.065,0,0,0,.7-.042Zm3.2-7.049c-.216,0-.36.15-.444.444a3.025,3.025,0,0,0-.084.63.648.648,0,0,0,.216.492.558.558,0,0,0,.456.246,1.069,1.069,0,0,0,.6-.2.522.522,0,0,0,.138-.366,1.99,1.99,0,0,1,0-.222,1.387,1.387,0,0,0-.24-.66.6.6,0,0,0-.642-.36Z" transform="translate(-103.358 -60.736)" fill="#1d1d1b"/>
    <path id="Path_71" data-name="Path 71" d="M7.685,205.582H5.578v-.2a.69.69,0,0,0,.462-.138.666.666,0,0,0,.126-.462,1.363,1.363,0,0,0,0-.144l-.342-3.392A22.534,22.534,0,0,0,4.8,203.264L3.728,205.78H3.512L1.5,200.8l-.144,1.537c-.066.69-.1,1.243-.1,1.651,0,.9.222,1.363.678,1.393v.2H0v-.2a.949.949,0,0,0,.6-.6,5.4,5.4,0,0,0,.252-.883,13.666,13.666,0,0,0,.27-1.723l.078-1.165v-.18a.516.516,0,0,0-.132-.414.726.726,0,0,0-.432-.108v-.2H2.059L3.9,204.633l1.051-2.492a21.7,21.7,0,0,0,.787-2.041H7.265v.2a1.057,1.057,0,0,0-.492.1.5.5,0,0,0-.18.45c0,.036,0,.066,0,.1l.324,3.422a2.035,2.035,0,0,0,.15.714.666.666,0,0,0,.6.288Z" transform="translate(0 -79.961)" fill="#1d1d1b"/>
    <path id="Path_72" data-name="Path 72" d="M15.283,205.358H13.32v-.2a.562.562,0,0,0,.654-.672V202.14q0-.27-.306-.27a.655.655,0,0,0-.246.054l-.1.042v-.222l1.1-.432h.21v3.17a.562.562,0,0,0,.654.672Zm-.57-5.4a.4.4,0,0,1-.12.288.4.4,0,0,1-.294.114.39.39,0,0,1-.4-.4.414.414,0,0,1,.114-.294.378.378,0,0,1,.282-.12.432.432,0,0,1,.3.12.4.4,0,0,1,.12.282Z" transform="translate(-5.323 -79.737)" fill="#1d1d1b"/>
    <path id="Path_73" data-name="Path 73" d="M21.673,206.517H20.184v-.2c.12,0,.18-.078.18-.21v-2.654c0-.324-.138-.492-.414-.492q-.672,0-1.117.973a3.675,3.675,0,0,0-.354,1.549,1.165,1.165,0,0,0,.12.6.721.721,0,0,0,.6.21v.2H17.23v-.2a.7.7,0,0,0,.5-.162.726.726,0,0,0,.15-.51v-2.191c0-.282-.1-.42-.288-.42a1.241,1.241,0,0,0-.366.108V202.9l1.117-.456h.18v1.411a7.346,7.346,0,0,1,.757-.895,1.555,1.555,0,0,1,1.009-.516c.486,0,.726.312.726.931v2.245a.564.564,0,0,0,.654.672Z" transform="translate(-6.885 -80.896)" fill="#1d1d1b"/>
    <path id="Path_74" data-name="Path 74" d="M27.313,205.358H25.35v-.2a.714.714,0,0,0,.51-.162.727.727,0,0,0,.15-.51V202.14c0-.18-.108-.27-.312-.27a.6.6,0,0,0-.24.054l-.108.042v-.222l1.1-.432h.21v3.17a.564.564,0,0,0,.654.672Zm-.57-5.4a.372.372,0,0,1-.12.288.42.42,0,0,1-.6,0,.4.4,0,0,1-.12-.288.414.414,0,0,1,.114-.294.39.39,0,0,1,.282-.12.42.42,0,0,1,.3.12.378.378,0,0,1,.144.282Z" transform="translate(-10.13 -79.737)" fill="#1d1d1b"/>
    <path id="Path_75" data-name="Path 75" d="M32.1,205.308a1.2,1.2,0,0,1-.51.961,1.711,1.711,0,0,1-1.057.366,2.786,2.786,0,0,1-1.057-.258v-1.2h.312a1.513,1.513,0,0,0,.27.8.871.871,0,0,0,.732.372.768.768,0,0,0,.54-.2.678.678,0,0,0,.21-.516.774.774,0,0,0-.258-.6,4.127,4.127,0,0,0-.534-.378l-.552-.342a1.087,1.087,0,0,1-.564-.829.913.913,0,0,1,.468-.8,1.675,1.675,0,0,1,.931-.264,2.366,2.366,0,0,1,.841.174v1.123h-.306a1.267,1.267,0,0,0-.222-.72.757.757,0,0,0-.642-.33.492.492,0,0,0-.51.51.7.7,0,0,0,.264.51,4.2,4.2,0,0,0,.492.342c.444.276.7.444.756.492A.961.961,0,0,1,32.1,205.308Z" transform="translate(-11.78 -80.888)" fill="#1d1d1b"/>
    <path id="Path_76" data-name="Path 76" d="M36.79,202.3H35.739v2.75q0,.27.216.27a1.2,1.2,0,0,0,.6-.342l.072-.054v.246a2.053,2.053,0,0,1-1.159.66c-.27,0-.408-.21-.408-.6v-2.906h-.63v-.192a.756.756,0,0,0,.534-.15.7.7,0,0,0,.162-.528v-.69L36,200.41v.222q-.27.06-.27.6c0,.39.1.642.282.75a.793.793,0,0,0,.42.1h.354Z" transform="translate(-13.758 -80.085)" fill="#1d1d1b"/>
    <path id="Path_77" data-name="Path 77" d="M42.262,204.223a2.575,2.575,0,0,1-1.867,1.2,1.465,1.465,0,0,1-1.2-.6,2,2,0,0,1-.444-1.267,2.444,2.444,0,0,1,.54-1.543,1.741,1.741,0,0,1,1.411-.751,1.249,1.249,0,0,1,1.021.468,1.681,1.681,0,0,1,.378,1.081H39.338v.246a2.1,2.1,0,0,0,.348,1.2,1.2,1.2,0,0,0,1.051.6,2.107,2.107,0,0,0,1.525-.9Zm-.835-1.633a1.351,1.351,0,0,0-.276-.732.841.841,0,0,0-.684-.33.967.967,0,0,0-.72.33,1.345,1.345,0,0,0-.342.732Zm-.408-1.945-.156.09-.6-.666c-.192-.21-.282-.348-.282-.414,0-.18.084-.264.252-.264s.2.09.288.27Z" transform="translate(-15.485 -79.677)" fill="#1d1d1b"/>
    <path id="Path_78" data-name="Path 78" d="M48.4,203.883h-.3q0-.775-.45-.775c-.366,0-.654.318-.877.949a4.346,4.346,0,0,0-.252,1.4.907.907,0,0,0,.216.714,1.279,1.279,0,0,0,.744.156v.2H45.25v-.2a.564.564,0,0,0,.654-.672v-2.221c0-.252-.09-.378-.276-.378a1.2,1.2,0,0,0-.378.1v-.21l1.123-.456h.192v1.393c.54-.925,1.039-1.387,1.5-1.387a1.2,1.2,0,0,1,.336.066Z" transform="translate(-18.082 -80.916)" fill="#1d1d1b"/>
    <path id="Path_79" data-name="Path 79" d="M54.446,205.469a2.577,2.577,0,0,1-1.861,1.2,1.447,1.447,0,0,1-1.2-.6,1.963,1.963,0,0,1-.444-1.267,2.474,2.474,0,0,1,.534-1.543,1.741,1.741,0,0,1,1.411-.75,1.267,1.267,0,0,1,1.027.468,1.753,1.753,0,0,1,.378,1.081H51.576v.246a2.059,2.059,0,0,0,.348,1.2,1.2,1.2,0,0,0,1.051.6,2.1,2.1,0,0,0,1.5-.883Zm-.829-1.633a1.453,1.453,0,0,0-.276-.732.841.841,0,0,0-.684-.3.949.949,0,0,0-.72.33,1.345,1.345,0,0,0-.342.732Z" transform="translate(-20.356 -80.924)" fill="#1d1d1b"/>
    <path id="Path_80" data-name="Path 80" d="M65.271,204.914l-1.1.432H64v-1.387a10.384,10.384,0,0,1-.75.889,1.5,1.5,0,0,1-1.009.5,1.075,1.075,0,0,1-.943-.564,2.029,2.029,0,0,1-.306-1.111,2.648,2.648,0,0,1,.6-1.657,1.921,1.921,0,0,1,1.513-.841,2.234,2.234,0,0,1,.877.228v-1.123c0-.246-.1-.366-.276-.366a1.033,1.033,0,0,0-.372.09v-.234l1.483-.564v.174a.288.288,0,0,0-.186.294v4.8q0,.36.306.36a.93.93,0,0,0,.342-.1Zm-1.249-2.4a2.258,2.258,0,0,0-.048-.516,1.8,1.8,0,0,0-1.147-.492,1.027,1.027,0,0,0-.937.66,2.588,2.588,0,0,0-.276,1.2,1.963,1.963,0,0,0,.228.937.835.835,0,0,0,.751.51c.42,0,.775-.282,1.069-.859A3.17,3.17,0,0,0,64,202.494Z" transform="translate(-24.372 -79.605)" fill="#1d1d1b"/>
    <path id="Path_81" data-name="Path 81" d="M72.026,205.469a2.577,2.577,0,0,1-1.861,1.2,1.447,1.447,0,0,1-1.2-.6,1.963,1.963,0,0,1-.444-1.267,2.474,2.474,0,0,1,.534-1.543,1.741,1.741,0,0,1,1.411-.75,1.267,1.267,0,0,1,1.027.468,1.753,1.753,0,0,1,.378,1.081H69.132v.246a2.06,2.06,0,0,0,.348,1.2,1.2,1.2,0,0,0,1.051.6,2.1,2.1,0,0,0,1.5-.883Zm-.817-1.633a1.453,1.453,0,0,0-.276-.732.841.841,0,0,0-.684-.33.949.949,0,0,0-.72.33,1.345,1.345,0,0,0-.342.732Z" transform="translate(-27.381 -80.924)" fill="#1d1d1b"/>
    <path id="Path_82" data-name="Path 82" d="M80.6,205.19H78.64v-.2a.57.57,0,0,0,.66-.672v-4.065c0-.258-.114-.39-.33-.39a1.1,1.1,0,0,0-.33.066v-.2l1.495-.6v.174a.324.324,0,0,0-.186.318v4.7a.564.564,0,0,0,.654.672Z" transform="translate(-31.425 -79.569)" fill="#1d1d1b"/>
    <path id="Path_83" data-name="Path 83" d="M86.422,206.017a1.8,1.8,0,0,1-1.063.642c-.246,0-.366-.138-.366-.414v-.636c-.678.7-1.2,1.051-1.609,1.051a.7.7,0,0,1-.528-.264.883.883,0,0,1-.216-.6c0-.6.793-1.291,2.4-2.005v-.516a.474.474,0,0,0-.534-.54.961.961,0,0,0-.817.492,2.035,2.035,0,0,0-.33.943h-.288v-1.027a3.4,3.4,0,0,1,1.855-.654.793.793,0,0,1,.6.186.864.864,0,0,1,.168.6v2.678q0,.2.18.2c.114,0,.312-.132.6-.4Zm-1.381-1.879a3.477,3.477,0,0,0-1.123.438,1.147,1.147,0,0,0-.654.931.549.549,0,0,0,.594.582,1.009,1.009,0,0,0,.937-.708,3.158,3.158,0,0,0,.246-1.243Z" transform="translate(-33.023 -80.913)" fill="#1d1d1b"/>
    <path id="Path_84" data-name="Path 84" d="M96.564,203.893a1.531,1.531,0,0,1-.666,1.237,2.138,2.138,0,0,1-1.357.486,3.56,3.56,0,0,1-1.261-.27V203.8h.306a1.657,1.657,0,0,0,.33,1.033,1.123,1.123,0,0,0,.943.492,1.027,1.027,0,0,0,.738-.27.919.919,0,0,0,.288-.714,1.2,1.2,0,0,0-.432-.877,7.541,7.541,0,0,0-.829-.6,8.639,8.639,0,0,1-.811-.6,1.087,1.087,0,0,1-.4-.853,1.357,1.357,0,0,1,.6-1.129,2.065,2.065,0,0,1,1.261-.414,3.176,3.176,0,0,1,1.015.222v1.345h-.312a1.549,1.549,0,0,0-.3-.871.949.949,0,0,0-.792-.4.858.858,0,0,0-.6.216.732.732,0,0,0-.24.6,1.243,1.243,0,0,0,.492.883,9.6,9.6,0,0,0,.859.6,6.284,6.284,0,0,1,.775.6A1.159,1.159,0,0,1,96.564,203.893Z" transform="translate(-37.275 -79.869)" fill="#1d1d1b"/>
    <path id="Path_85" data-name="Path 85" d="M103.372,206.013a1.8,1.8,0,0,1-1.063.642c-.246,0-.366-.138-.366-.414V205.6c-.684.7-1.2,1.051-1.609,1.051a.7.7,0,0,1-.564-.27.913.913,0,0,1-.21-.6c0-.6.793-1.291,2.4-2.005v-.516a.474.474,0,0,0-.534-.54.955.955,0,0,0-.817.492,1.97,1.97,0,0,0-.33.943h-.288v-1.027a3.362,3.362,0,0,1,1.855-.654.769.769,0,0,1,.6.186.865.865,0,0,1,.174.6v2.678c0,.132.06.2.174.2s.318-.132.6-.4Zm-1.387-1.879a3.5,3.5,0,0,0-1.117.438,1.153,1.153,0,0,0-.66.931.552.552,0,0,0,.168.426.6.6,0,0,0,.426.156,1.021,1.021,0,0,0,.943-.708,3.164,3.164,0,0,0,.24-1.243Z" transform="translate(-39.785 -80.908)" fill="#1d1d1b"/>
    <path id="Path_86" data-name="Path 86" d="M110.829,206.517h-1.495v-.2c.12,0,.18-.078.18-.21v-2.654c0-.324-.138-.492-.414-.492-.45,0-.817.324-1.111.973a3.687,3.687,0,0,0-.36,1.549,1.1,1.1,0,0,0,.126.6.714.714,0,0,0,.6.21v.2H106.41v-.2a.7.7,0,0,0,.5-.162.732.732,0,0,0,.144-.51v-2.191c0-.282-.1-.42-.282-.42a1.2,1.2,0,0,0-.366.108V202.9l1.111-.456h.18v1.411a6.789,6.789,0,0,1,.763-.895,1.543,1.543,0,0,1,1.009-.516c.48,0,.726.312.726.931v2.245a.564.564,0,0,0,.654.672Z" transform="translate(-42.522 -80.896)" fill="#1d1d1b"/>
    <path id="Path_87" data-name="Path 87" d="M116.614,202.3h-1.051v2.75q0,.27.216.27a1.2,1.2,0,0,0,.6-.342l.072-.054v.246a2.053,2.053,0,0,1-1.159.66c-.27,0-.4-.21-.4-.6v-2.906h-.66v-.192a.756.756,0,0,0,.534-.15.7.7,0,0,0,.162-.528v-.69l.877-.354v.222q-.27.06-.27.6c0,.39.1.642.288.75a.756.756,0,0,0,.414.1h.354Z" transform="translate(-45.647 -80.085)" fill="#1d1d1b"/>
    <path id="Path_88" data-name="Path 88" d="M122.122,204.223a2.575,2.575,0,0,1-1.867,1.2,1.447,1.447,0,0,1-1.165-.6,1.969,1.969,0,0,1-.45-1.267,2.444,2.444,0,0,1,.54-1.543,1.741,1.741,0,0,1,1.411-.751,1.267,1.267,0,0,1,1.027.468,1.717,1.717,0,0,1,.372,1.081h-2.762v.246a2.1,2.1,0,0,0,.342,1.2,1.2,1.2,0,0,0,1.051.6,2.1,2.1,0,0,0,1.507-.883Zm-.835-1.633a1.4,1.4,0,0,0-.27-.732.841.841,0,0,0-.684-.33.949.949,0,0,0-.72.33,1.345,1.345,0,0,0-.342.732Zm-.15-2.948a.474.474,0,0,1-.15.27l-.726.811-.18-.126.552-1.021c.066-.126.15-.186.24-.186a.27.27,0,0,1,.186.072A.252.252,0,0,1,121.138,199.642Z" transform="translate(-47.409 -79.677)" fill="#1d1d1b"/>
    <path id="Path_89" data-name="Path 89" d="M132.066,205.469a2.566,2.566,0,0,1-1.861,1.2,1.447,1.447,0,0,1-1.2-.6,1.963,1.963,0,0,1-.444-1.267,2.444,2.444,0,0,1,.54-1.543,1.735,1.735,0,0,1,1.4-.751,1.267,1.267,0,0,1,1.027.468,1.681,1.681,0,0,1,.378,1.081h-2.768v.246a2.059,2.059,0,0,0,.348,1.2,1.2,1.2,0,0,0,1.051.6,2.089,2.089,0,0,0,1.5-.883Zm-.841-1.633a1.4,1.4,0,0,0-.276-.732.841.841,0,0,0-.684-.33.949.949,0,0,0-.72.33,1.345,1.345,0,0,0-.342.732Z" transform="translate(-51.373 -80.924)" fill="#1d1d1b"/>
    <path id="Path_90" data-name="Path 90" d="M137.254,202.3H136.2v2.75q0,.27.216.27a1.2,1.2,0,0,0,.6-.342l.072-.054v.246a2.054,2.054,0,0,1-1.159.66c-.27,0-.4-.21-.4-.6v-2.906h-.63v-.192a.738.738,0,0,0,.528-.15.7.7,0,0,0,.162-.528v-.69l.877-.354v.222c-.18.042-.264.246-.264.6a.838.838,0,0,0,.282.75.756.756,0,0,0,.414.1h.354Z" transform="translate(-53.907 -80.085)" fill="#1d1d1b"/>
    <path id="Path_91" data-name="Path 91" d="M147.135,204.914l-1.093.432h-.2v-1.387a9.35,9.35,0,0,1-.751.889,1.5,1.5,0,0,1-1.009.5,1.075,1.075,0,0,1-.943-.564,2.029,2.029,0,0,1-.306-1.111,2.654,2.654,0,0,1,.6-1.657,1.921,1.921,0,0,1,1.513-.841,2.2,2.2,0,0,1,.871.228v-1.123c0-.246-.09-.366-.276-.366a1.009,1.009,0,0,0-.366.09v-.234l1.483-.564v.174a.282.282,0,0,0-.186.294v4.8c0,.24.1.36.3.36a.877.877,0,0,0,.342-.1Zm-1.243-2.4a2.235,2.235,0,0,0-.054-.516,1.8,1.8,0,0,0-1.147-.492,1.033,1.033,0,0,0-.937.66,2.588,2.588,0,0,0-.27,1.2,1.9,1.9,0,0,0,.228.937.823.823,0,0,0,.744.51c.42,0,.78-.282,1.069-.859a3.1,3.1,0,0,0,.366-1.459Z" transform="translate(-57.075 -79.605)" fill="#1d1d1b"/>
    <path id="Path_92" data-name="Path 92" d="M153.932,205.469a2.586,2.586,0,0,1-1.867,1.2,1.447,1.447,0,0,1-1.171-.6,2,2,0,0,1-.444-1.267,2.444,2.444,0,0,1,.54-1.543,1.741,1.741,0,0,1,1.411-.751,1.255,1.255,0,0,1,1.021.468,1.681,1.681,0,0,1,.378,1.081h-2.762v.246a2.1,2.1,0,0,0,.348,1.2,1.2,1.2,0,0,0,1.051.6,2.108,2.108,0,0,0,1.507-.883Zm-.835-1.633a1.351,1.351,0,0,0-.276-.732.841.841,0,0,0-.684-.33.949.949,0,0,0-.72.33,1.345,1.345,0,0,0-.342.732Z" transform="translate(-60.121 -80.924)" fill="#1d1d1b"/>
    <path id="Path_93" data-name="Path 93" d="M162.489,205.19H160.52v-.2a.726.726,0,0,0,.51-.162.7.7,0,0,0,.15-.51v-4.065c0-.258-.108-.39-.324-.39a1.135,1.135,0,0,0-.336.066v-.2l1.495-.6v.174a.33.33,0,0,0-.186.318v4.7a.727.727,0,0,0,.15.51.714.714,0,0,0,.51.162Z" transform="translate(-64.145 -79.569)" fill="#1d1d1b"/>
    <path id="Path_94" data-name="Path 94" d="M168.288,206.013a1.8,1.8,0,0,1-1.063.642c-.246,0-.372-.138-.372-.414V205.6c-.678.7-1.2,1.051-1.6,1.051a.7.7,0,0,1-.564-.27.882.882,0,0,1-.216-.6c0-.6.8-1.291,2.4-2.005v-.516a.474.474,0,0,0-.528-.54.973.973,0,0,0-.823.492,2.029,2.029,0,0,0-.324.943h-.288v-1.027a3.362,3.362,0,0,1,1.855-.654.768.768,0,0,1,.6.186.864.864,0,0,1,.174.6v2.678c0,.132.06.2.174.2s.318-.132.6-.4Zm-1.387-1.879a3.5,3.5,0,0,0-1.117.438,1.153,1.153,0,0,0-.66.931.549.549,0,0,0,.594.582,1.021,1.021,0,0,0,.943-.708,3.164,3.164,0,0,0,.24-1.243Z" transform="translate(-65.723 -80.908)" fill="#1d1d1b"/>
    <path id="Path_95" data-name="Path 95" d="M179.065,204.1a2.768,2.768,0,0,1-.6,1.729,1.946,1.946,0,0,1-1.567.853,2.222,2.222,0,0,1-.847-.2v1.015a.744.744,0,0,0,.15.516.714.714,0,0,0,.516.156v.21H174.76v-.21a.666.666,0,0,0,.5-.162.738.738,0,0,0,.144-.51v-4.077c0-.216-.084-.318-.252-.318a1.64,1.64,0,0,0-.4.108v-.216l1.1-.45h.192v1.393a6.75,6.75,0,0,1,.75-.9,1.513,1.513,0,0,1,1.015-.5,1.093,1.093,0,0,1,.949.516A1.873,1.873,0,0,1,179.065,204.1Zm-.648.39a2.2,2.2,0,0,0-.192-.955.786.786,0,0,0-.732-.534c-.456,0-.835.3-1.129.895a3.325,3.325,0,0,0-.366,1.495,4.276,4.276,0,0,0,.042.54,1.8,1.8,0,0,0,1.063.486,1.129,1.129,0,0,0,1.015-.678,2.594,2.594,0,0,0,.3-1.249Z" transform="translate(-69.835 -80.932)" fill="#1d1d1b"/>
    <path id="Path_96" data-name="Path 96" d="M185.762,203.883h-.3q0-.774-.45-.774c-.366,0-.66.318-.883.949a4.347,4.347,0,0,0-.252,1.4.883.883,0,0,0,.222.715,1.243,1.243,0,0,0,.739.156v.2H182.61v-.2a.726.726,0,0,0,.51-.162.7.7,0,0,0,.15-.51v-2.221c0-.252-.09-.378-.276-.378a1.273,1.273,0,0,0-.384.1v-.21l1.129-.456h.186v1.393c.54-.925,1.039-1.387,1.5-1.387a1.1,1.1,0,0,1,.336.066Z" transform="translate(-72.972 -80.916)" fill="#1d1d1b"/>
    <path id="Path_97" data-name="Path 97" d="M192.267,204.36a2.305,2.305,0,0,1-.6,1.6,2.024,2.024,0,0,1-1.555.7,1.651,1.651,0,0,1-1.3-.528,1.9,1.9,0,0,1-.456-1.333,2.306,2.306,0,0,1,.6-1.6,2,2,0,0,1,1.531-.708,1.693,1.693,0,0,1,1.309.516A1.885,1.885,0,0,1,192.267,204.36Zm-.6.474a2.293,2.293,0,0,0-.222-.991,1.909,1.909,0,0,0-.648-.781,1.243,1.243,0,0,0-.69-.228,1.063,1.063,0,0,0-.919.444,1.717,1.717,0,0,0-.282,1.015,2.149,2.149,0,0,0,.444,1.321,1.411,1.411,0,0,0,1.2.66,1,1,0,0,0,.865-.462,1.675,1.675,0,0,0,.27-.979Z" transform="translate(-75.268 -80.918)" fill="#1d1d1b"/>
    <path id="Path_98" data-name="Path 98" d="M197.76,202.3h-1.051v2.75q0,.27.216.27a1.2,1.2,0,0,0,.6-.342l.072-.054v.246a2.066,2.066,0,0,1-1.165.66c-.264,0-.4-.21-.4-.6v-2.906h-.63v-.192a.756.756,0,0,0,.534-.15.7.7,0,0,0,.162-.528v-.69l.877-.354v.222q-.27.06-.27.6c0,.39.1.642.282.75a.787.787,0,0,0,.414.1h.36Z" transform="translate(-78.083 -80.085)" fill="#1d1d1b"/>
    <path id="Path_99" data-name="Path 99" d="M203.232,205.465a2.586,2.586,0,0,1-1.867,1.2,1.453,1.453,0,0,1-1.2-.6,2,2,0,0,1-.444-1.267,2.444,2.444,0,0,1,.54-1.543,1.741,1.741,0,0,1,1.429-.757,1.255,1.255,0,0,1,1.021.468,1.681,1.681,0,0,1,.378,1.081h-2.762v.246a2.1,2.1,0,0,0,.348,1.2,1.2,1.2,0,0,0,1.051.6,2.107,2.107,0,0,0,1.507-.883Zm-.835-1.633a1.351,1.351,0,0,0-.276-.732.84.84,0,0,0-.684-.33.966.966,0,0,0-.72.33,1.345,1.345,0,0,0-.342.732Z" transform="translate(-79.809 -80.92)" fill="#1d1d1b"/>
    <path id="Path_100" data-name="Path 100" d="M209.578,205.482a2.531,2.531,0,0,1-1.8,1.2,1.423,1.423,0,0,1-1.2-.6,2,2,0,0,1-.426-1.273,2.4,2.4,0,0,1,.6-1.609,1.963,1.963,0,0,1,1.537-.721,2.864,2.864,0,0,1,1.159.282v1.123h-.312a1.165,1.165,0,0,0-.306-.811,1.027,1.027,0,0,0-.793-.33,1.081,1.081,0,0,0-.961.546,2.012,2.012,0,0,0-.306,1.117,1.97,1.97,0,0,0,.324,1.135,1.153,1.153,0,0,0,1,.546,2.275,2.275,0,0,0,1.477-.907Z" transform="translate(-82.378 -80.912)" fill="#1d1d1b"/>
    <path id="Path_101" data-name="Path 101" d="M214.944,202.3h-1.051v2.75q0,.27.216.27a1.2,1.2,0,0,0,.6-.342l.072-.054v.246a2.053,2.053,0,0,1-1.159.66c-.27,0-.4-.21-.4-.6v-2.906h-.66v-.192a.757.757,0,0,0,.534-.15.7.7,0,0,0,.162-.528v-.69l.877-.354v.222q-.27.06-.27.6c0,.39.1.642.282.75a.793.793,0,0,0,.42.1h.354Z" transform="translate(-84.94 -80.085)" fill="#1d1d1b"/>
    <path id="Path_102" data-name="Path 102" d="M219.043,205.358H217.08v-.2a.564.564,0,0,0,.654-.672V202.14q0-.27-.306-.27a.655.655,0,0,0-.246.054l-.1.042v-.222l1.1-.432h.21v3.17a.564.564,0,0,0,.654.672Zm-.57-5.4a.4.4,0,0,1-.12.288.4.4,0,0,1-.294.114.39.39,0,0,1-.4-.4.414.414,0,0,1,.114-.294.378.378,0,0,1,.282-.12.432.432,0,0,1,.3.12.4.4,0,0,1,.12.282Z" transform="translate(-86.746 -79.737)" fill="#1d1d1b"/>
    <path id="Path_103" data-name="Path 103" d="M224.857,204.36a2.312,2.312,0,0,1-.6,1.6,2.017,2.017,0,0,1-1.549.7,1.657,1.657,0,0,1-1.3-.528,1.9,1.9,0,0,1-.456-1.333,2.336,2.336,0,0,1,.6-1.6,2.011,2.011,0,0,1,1.537-.708,1.705,1.705,0,0,1,1.309.516,1.915,1.915,0,0,1,.462,1.345Zm-.6.474a2.3,2.3,0,0,0-.228-.991,1.909,1.909,0,0,0-.648-.781,1.243,1.243,0,0,0-.69-.228,1.069,1.069,0,0,0-.919.444,1.717,1.717,0,0,0-.282,1.015,2.186,2.186,0,0,0,.444,1.321,1.417,1.417,0,0,0,1.2.66.991.991,0,0,0,.847-.474,1.681,1.681,0,0,0,.294-.967Z" transform="translate(-88.291 -80.919)" fill="#1d1d1b"/>
    <path id="Path_104" data-name="Path 104" d="M232.6,206.517h-1.489v-.2c.12,0,.18-.078.18-.21v-2.654c0-.324-.138-.492-.42-.492-.444,0-.817.324-1.111.973a3.675,3.675,0,0,0-.354,1.549,1.164,1.164,0,0,0,.12.6.721.721,0,0,0,.6.21v.2H228.18v-.2a.7.7,0,0,0,.5-.162.732.732,0,0,0,.144-.51v-2.191c0-.282-.09-.42-.282-.42a1.2,1.2,0,0,0-.366.108V202.9l1.111-.456h.18v1.411a7.282,7.282,0,0,1,.763-.895,1.543,1.543,0,0,1,1.009-.516c.486,0,.726.312.726.931v2.245a.564.564,0,0,0,.654.672Z" transform="translate(-91.182 -80.896)" fill="#1d1d1b"/>
    <path id="Path_105" data-name="Path 105" d="M242.624,205.3a1.2,1.2,0,0,1-.51.961,1.681,1.681,0,0,1-1.051.366,2.84,2.84,0,0,1-1.063-.264v-1.2h.294a1.417,1.417,0,0,0,.27.8.871.871,0,0,0,.732.372.745.745,0,0,0,.534-.2.66.66,0,0,0,.216-.516.781.781,0,0,0-.264-.6,3.724,3.724,0,0,0-.534-.378l-.546-.342a1.087,1.087,0,0,1-.564-.829.919.919,0,0,1,.462-.8,1.693,1.693,0,0,1,.937-.264,2.4,2.4,0,0,1,.841.174v1.123h-.306a1.2,1.2,0,0,0-.228-.72.75.75,0,0,0-.642-.33.5.5,0,0,0-.366.144.492.492,0,0,0-.144.366.69.69,0,0,0,.27.51,3.726,3.726,0,0,0,.492.342c.444.276.7.444.757.492A.967.967,0,0,1,242.624,205.3Z" transform="translate(-95.905 -80.884)" fill="#1d1d1b"/>
    <path id="Path_106" data-name="Path 106" d="M248.987,204.36a2.287,2.287,0,0,1-.6,1.6,2.017,2.017,0,0,1-1.549.7,1.639,1.639,0,0,1-1.3-.528,1.9,1.9,0,0,1-.462-1.333,2.311,2.311,0,0,1,.6-1.6,1.987,1.987,0,0,1,1.531-.708,1.705,1.705,0,0,1,1.309.516,1.885,1.885,0,0,1,.468,1.345Zm-.6.474a2.3,2.3,0,0,0-.228-.991,1.862,1.862,0,0,0-.648-.781,1.2,1.2,0,0,0-.69-.228,1.057,1.057,0,0,0-.913.444,1.675,1.675,0,0,0-.282,1.015,2.179,2.179,0,0,0,.438,1.321,1.417,1.417,0,0,0,1.2.66,1,1,0,0,0,.871-.462,1.723,1.723,0,0,0,.27-.979Z" transform="translate(-97.934 -80.919)" fill="#1d1d1b"/>
    <path id="Path_107" data-name="Path 107" d="M255.658,205.482a2.531,2.531,0,0,1-1.8,1.2,1.423,1.423,0,0,1-1.171-.6,2,2,0,0,1-.426-1.273,2.4,2.4,0,0,1,.6-1.609,1.963,1.963,0,0,1,1.537-.721,2.864,2.864,0,0,1,1.159.282v1.123h-.312a1.2,1.2,0,0,0-.306-.811,1.027,1.027,0,0,0-.793-.33,1.081,1.081,0,0,0-.961.546,2.011,2.011,0,0,0-.306,1.117,1.969,1.969,0,0,0,.324,1.135,1.153,1.153,0,0,0,1,.546,2.275,2.275,0,0,0,1.477-.907Z" transform="translate(-100.804 -80.912)" fill="#1d1d1b"/>
    <path id="Path_108" data-name="Path 108" d="M260.843,205.358H258.88v-.2a.564.564,0,0,0,.654-.672V202.14q0-.27-.306-.27a.654.654,0,0,0-.246.054l-.1.042v-.222l1.093-.432h.21v3.17a.726.726,0,0,0,.15.51.715.715,0,0,0,.51.162Zm-.57-5.4a.4.4,0,0,1-.12.288.414.414,0,0,1-.294.114.39.39,0,0,1-.288-.114.4.4,0,0,1-.12-.288.42.42,0,0,1,.12-.294.378.378,0,0,1,.282-.12.408.408,0,0,1,.294.12.384.384,0,0,1,.126.282Z" transform="translate(-103.45 -79.737)" fill="#1d1d1b"/>
    <path id="Path_109" data-name="Path 109" d="M266.642,206.013a1.8,1.8,0,0,1-1.063.642c-.246,0-.366-.138-.366-.414V205.6c-.678.7-1.2,1.051-1.609,1.051a.7.7,0,0,1-.558-.27.882.882,0,0,1-.216-.6c0-.6.792-1.291,2.4-2.005v-.516a.474.474,0,0,0-.528-.54.967.967,0,0,0-.823.492,2.035,2.035,0,0,0-.33.943h-.288v-1.027a3.4,3.4,0,0,1,1.861-.654.78.78,0,0,1,.6.186.864.864,0,0,1,.174.6v2.678c0,.132.054.2.174.2s.312-.132.6-.4Zm-1.381-1.879a3.393,3.393,0,0,0-1.129.456,1.141,1.141,0,0,0-.66.931.549.549,0,0,0,.594.582,1.009,1.009,0,0,0,.937-.708,3.159,3.159,0,0,0,.258-1.261Z" transform="translate(-105.028 -80.909)" fill="#1d1d1b"/>
    <path id="Path_110" data-name="Path 110" d="M271.689,205.19H269.72v-.2a.726.726,0,0,0,.51-.162.7.7,0,0,0,.15-.51v-4.065c0-.258-.108-.39-.324-.39a1.135,1.135,0,0,0-.336.066v-.2l1.495-.6v.174a.324.324,0,0,0-.18.318v4.7a.564.564,0,0,0,.654.672Z" transform="translate(-107.781 -79.569)" fill="#1d1d1b"/>
    <path id="Path_111" data-name="Path 111" d="M277.026,205.469a2.566,2.566,0,0,1-1.861,1.2,1.447,1.447,0,0,1-1.171-.6,1.963,1.963,0,0,1-.444-1.267,2.444,2.444,0,0,1,.54-1.543,1.735,1.735,0,0,1,1.4-.751,1.267,1.267,0,0,1,1.027.468,1.753,1.753,0,0,1,.378,1.081h-2.768v.246a2.06,2.06,0,0,0,.348,1.2,1.2,1.2,0,0,0,1.051.6,2.1,2.1,0,0,0,1.5-.883Zm-.8-1.633a1.453,1.453,0,0,0-.276-.732.841.841,0,0,0-.684-.33.949.949,0,0,0-.72.33,1.345,1.345,0,0,0-.342.732Z" transform="translate(-109.312 -80.924)" fill="#1d1d1b"/>
  </g>
</svg>
